# MagicaVoxel @ ephtracy

# material
mtllib fazhang.mtl
usemtl palette

# normals
vn -1 0 0
vn 1 0 0
vn 0 0 1
vn 0 0 -1
vn 0 -1 0
vn 0 1 0

# texcoords
vt 0.373047 0.5
vt 0.423828 0.5
vt 0.564453 0.5
vt 0.568359 0.5
vt 0.845703 0.5

# verts
v -3 7 1
v -3 7 -1
v -3 9 1
v -3 9 -1
v -2 6 1
v -2 6 -1
v -2 7 1
v -2 7 -1
v -2 8 2
v -2 8 1
v -2 8 -1
v -2 8 -2
v -2 9 1
v -2 9 -1
v -2 10 2
v -2 10 -2
v -1 0 1
v -1 0 -1
v -1 6 1
v -1 6 -1
v -1 7 2
v -1 7 1
v -1 7 -1
v -1 7 -2
v -1 8 2
v -1 8 1
v -1 8 -1
v -1 8 -2
v -1 10 2
v -1 10 -2
v -1 11 2
v -1 11 -2
v 1 8 2
v 1 8 1
v 1 8 -1
v 1 8 -2
v 1 10 2
v 1 10 1
v 1 10 -1
v 1 10 -2
v -1 8 2
v -1 8 1
v -1 8 -1
v -1 8 -2
v -1 10 2
v -1 10 1
v -1 10 -1
v -1 10 -2
v 1 0 1
v 1 0 -1
v 1 6 1
v 1 6 -1
v 1 7 2
v 1 7 1
v 1 7 -1
v 1 7 -2
v 1 8 2
v 1 8 1
v 1 8 -1
v 1 8 -2
v 1 10 2
v 1 10 -2
v 1 11 2
v 1 11 -2
v 2 6 1
v 2 6 -1
v 2 7 1
v 2 7 -1
v 2 8 2
v 2 8 1
v 2 8 -1
v 2 8 -2
v 2 9 1
v 2 9 -1
v 2 10 2
v 2 10 -2
v 3 7 1
v 3 7 -1
v 3 9 1
v 3 9 -1
v -2 8 2
v -2 10 2
v -1 7 2
v -1 8 2
v -1 10 2
v -1 11 2
v 1 7 2
v 1 8 2
v 1 10 2
v 1 11 2
v 2 8 2
v 2 10 2
v -3 7 1
v -3 9 1
v -2 6 1
v -2 7 1
v -2 8 1
v -2 9 1
v -1 0 1
v -1 6 1
v -1 7 1
v -1 8 1
v -1 10 1
v 1 0 1
v 1 6 1
v 1 7 1
v 1 8 1
v 1 10 1
v 2 6 1
v 2 7 1
v 2 8 1
v 2 9 1
v 3 7 1
v 3 9 1
v -3 7 -1
v -3 9 -1
v -2 6 -1
v -2 7 -1
v -2 8 -1
v -2 9 -1
v -1 0 -1
v -1 6 -1
v -1 7 -1
v -1 8 -1
v -1 10 -1
v 1 0 -1
v 1 6 -1
v 1 7 -1
v 1 8 -1
v 1 10 -1
v 2 6 -1
v 2 7 -1
v 2 8 -1
v 2 9 -1
v 3 7 -1
v 3 9 -1
v -2 8 -2
v -2 10 -2
v -1 7 -2
v -1 8 -2
v -1 10 -2
v -1 11 -2
v 1 7 -2
v 1 8 -2
v 1 10 -2
v 1 11 -2
v 2 8 -2
v 2 10 -2
v -1 0 1
v 1 0 1
v -1 0 -1
v 1 0 -1
v -2 6 1
v -1 6 1
v 1 6 1
v 2 6 1
v -2 6 -1
v -1 6 -1
v 1 6 -1
v 2 6 -1
v -1 7 2
v 1 7 2
v -3 7 1
v -2 7 1
v -1 7 1
v 1 7 1
v 2 7 1
v 3 7 1
v -3 7 -1
v -2 7 -1
v -1 7 -1
v 1 7 -1
v 2 7 -1
v 3 7 -1
v -1 7 -2
v 1 7 -2
v -2 8 2
v -1 8 2
v 1 8 2
v 2 8 2
v -2 8 1
v -1 8 1
v 1 8 1
v 2 8 1
v -2 8 -1
v -1 8 -1
v 1 8 -1
v 2 8 -1
v -2 8 -2
v -1 8 -2
v 1 8 -2
v 2 8 -2
v -1 10 2
v 1 10 2
v -1 10 1
v 1 10 1
v -1 10 -1
v 1 10 -1
v -1 10 -2
v 1 10 -2
v -1 8 2
v 1 8 2
v -1 8 1
v 1 8 1
v -1 8 -1
v 1 8 -1
v -1 8 -2
v 1 8 -2
v -3 9 1
v -2 9 1
v 2 9 1
v 3 9 1
v -3 9 -1
v -2 9 -1
v 2 9 -1
v 3 9 -1
v -2 10 2
v -1 10 2
v 1 10 2
v 2 10 2
v -2 10 -2
v -1 10 -2
v 1 10 -2
v 2 10 -2
v -1 11 2
v 1 11 2
v -1 11 -2
v 1 11 -2

# faces
f 3/1/1 2/1/1 1/1/1
f 4/1/1 2/1/1 3/1/1
f 7/1/1 6/1/1 5/1/1
f 8/1/1 6/1/1 7/1/1
f 13/4/1 10/4/1 9/4/1
f 14/4/1 12/4/1 11/4/1
f 15/4/1 13/4/1 9/4/1
f 15/4/1 14/4/1 13/4/1
f 16/4/1 12/4/1 14/4/1
f 16/4/1 14/4/1 15/4/1
f 19/1/1 18/1/1 17/1/1
f 20/1/1 18/1/1 19/1/1
f 25/4/1 22/4/1 21/4/1
f 26/4/1 22/4/1 25/4/1
f 27/4/1 24/4/1 23/4/1
f 28/4/1 24/4/1 27/4/1
f 31/4/1 30/4/1 29/4/1
f 32/4/1 30/4/1 31/4/1
f 37/4/1 34/4/1 33/4/1
f 38/4/1 34/4/1 37/4/1
f 39/4/1 36/4/1 35/4/1
f 40/4/1 36/4/1 39/4/1
f 41/4/2 42/4/2 45/4/2
f 45/4/2 42/4/2 46/4/2
f 43/4/2 44/4/2 47/4/2
f 47/4/2 44/4/2 48/4/2
f 49/1/2 50/1/2 51/1/2
f 51/1/2 50/1/2 52/1/2
f 53/4/2 54/4/2 57/4/2
f 57/4/2 54/4/2 58/4/2
f 55/4/2 56/4/2 59/4/2
f 59/4/2 56/4/2 60/4/2
f 61/4/2 62/4/2 63/4/2
f 63/4/2 62/4/2 64/4/2
f 65/1/2 66/1/2 67/1/2
f 67/1/2 66/1/2 68/1/2
f 69/4/2 70/4/2 73/4/2
f 71/4/2 72/4/2 74/4/2
f 69/4/2 73/4/2 75/4/2
f 73/4/2 74/4/2 75/4/2
f 74/4/2 72/4/2 76/4/2
f 75/4/2 74/4/2 76/4/2
f 77/1/2 78/1/2 79/1/2
f 79/1/2 78/1/2 80/1/2
f 84/4/3 82/4/3 81/4/3
f 85/4/3 82/4/3 84/4/3
f 87/4/3 84/4/3 83/4/3
f 88/4/3 84/4/3 87/4/3
f 89/4/3 86/4/3 85/4/3
f 90/4/3 86/4/3 89/4/3
f 91/4/3 89/4/3 88/4/3
f 92/4/3 89/4/3 91/4/3
f 96/1/3 94/1/3 93/1/3
f 97/1/3 94/1/3 96/1/3
f 98/1/3 94/1/3 97/1/3
f 100/1/3 96/1/3 95/1/3
f 100/1/3 97/1/3 96/1/3
f 101/1/3 97/1/3 100/1/3
f 102/1/3 97/1/3 101/1/3
f 104/1/3 100/1/3 99/1/3
f 104/1/3 101/1/3 100/1/3
f 105/1/3 101/1/3 104/1/3
f 106/1/3 101/1/3 105/1/3
f 107/5/3 103/5/3 102/5/3
f 108/5/3 103/5/3 107/5/3
f 109/1/3 106/1/3 105/1/3
f 109/1/3 107/1/3 106/1/3
f 110/1/3 107/1/3 109/1/3
f 111/1/3 107/1/3 110/1/3
f 113/1/3 112/1/3 111/1/3
f 113/1/3 111/1/3 110/1/3
f 114/1/3 112/1/3 113/1/3
f 115/1/4 116/1/4 118/1/4
f 118/1/4 116/1/4 119/1/4
f 119/1/4 116/1/4 120/1/4
f 117/1/4 118/1/4 122/1/4
f 118/1/4 119/1/4 122/1/4
f 122/1/4 119/1/4 123/1/4
f 123/1/4 119/1/4 124/1/4
f 121/1/4 122/1/4 126/1/4
f 122/1/4 123/1/4 126/1/4
f 126/1/4 123/1/4 127/1/4
f 127/1/4 123/1/4 128/1/4
f 124/5/4 125/5/4 129/5/4
f 129/5/4 125/5/4 130/5/4
f 127/1/4 128/1/4 131/1/4
f 128/1/4 129/1/4 131/1/4
f 131/1/4 129/1/4 132/1/4
f 132/1/4 129/1/4 133/1/4
f 133/1/4 134/1/4 135/1/4
f 132/1/4 133/1/4 135/1/4
f 135/1/4 134/1/4 136/1/4
f 137/4/4 138/4/4 140/4/4
f 140/4/4 138/4/4 141/4/4
f 139/4/4 140/4/4 143/4/4
f 143/4/4 140/4/4 144/4/4
f 141/4/4 142/4/4 145/4/4
f 145/4/4 142/4/4 146/4/4
f 144/4/4 145/4/4 147/4/4
f 147/4/4 145/4/4 148/4/4
f 151/1/5 150/1/5 149/1/5
f 152/1/5 150/1/5 151/1/5
f 157/1/5 154/1/5 153/1/5
f 158/1/5 154/1/5 157/1/5
f 159/1/5 156/1/5 155/1/5
f 160/1/5 156/1/5 159/1/5
f 165/4/5 162/4/5 161/4/5
f 166/4/5 162/4/5 165/4/5
f 169/1/5 164/1/5 163/1/5
f 170/1/5 164/1/5 169/1/5
f 173/1/5 168/1/5 167/1/5
f 174/1/5 168/1/5 173/1/5
f 175/4/5 172/4/5 171/4/5
f 176/4/5 172/4/5 175/4/5
f 181/4/5 178/4/5 177/4/5
f 182/4/5 178/4/5 181/4/5
f 183/4/5 180/4/5 179/4/5
f 184/4/5 180/4/5 183/4/5
f 189/4/5 186/4/5 185/4/5
f 190/4/5 186/4/5 189/4/5
f 191/4/5 188/4/5 187/4/5
f 192/4/5 188/4/5 191/4/5
f 195/4/5 194/4/5 193/4/5
f 196/4/5 194/4/5 195/4/5
f 199/4/5 198/4/5 197/4/5
f 200/4/5 198/4/5 199/4/5
f 201/4/6 202/4/6 203/4/6
f 203/4/6 202/4/6 204/4/6
f 205/4/6 206/4/6 207/4/6
f 207/4/6 206/4/6 208/4/6
f 209/1/6 210/1/6 213/1/6
f 213/1/6 210/1/6 214/1/6
f 211/1/6 212/1/6 215/1/6
f 215/1/6 212/1/6 216/1/6
f 217/4/6 218/4/6 221/4/6
f 221/4/6 218/4/6 222/4/6
f 219/4/6 220/4/6 223/4/6
f 223/4/6 220/4/6 224/4/6
f 225/4/6 226/4/6 227/4/6
f 227/4/6 226/4/6 228/4/6
